<svg width="83" height="18" viewBox="0 0 83 18" fill="none" xmlns="http://www.w3.org/2000/svg">
<path d="M19.328 17.08C17.6 17.08 16.352 16.68 15.584 15.88C14.832 15.064 14.456 13.744 14.456 11.92V3.424L9.2 16H8.408L1.976 2.944V16H0.776V0.159999H3.704L9.512 11.944L14.432 0.159999H17.576V11.92C17.576 13.424 17.704 14.528 17.96 15.232C18.216 15.936 18.672 16.352 19.328 16.48V17.08ZM22.0925 3.28C22.0925 2.464 21.9805 1.864 21.7565 1.48C21.5325 1.08 21.0845 0.879999 20.4125 0.879999H20.1725V0.159999H30.7565C32.1165 0.159999 32.7965 0.799999 32.7965 2.08V4.12H32.0765C32.0765 3.128 31.8205 2.4 31.3085 1.936C30.8125 1.472 30.0685 1.24 29.0765 1.24H25.2125V7.24H31.4525V8.32H25.2125V14.92H29.3165C30.2285 14.92 30.9885 14.72 31.5965 14.32C32.2045 13.904 32.7085 13.192 33.1085 12.184L33.7565 12.424L33.0605 14.32C32.8525 14.896 32.6045 15.32 32.3165 15.592C32.0285 15.864 31.5805 16 30.9725 16H22.0925V3.28ZM36.4831 3.28C36.4831 2.464 36.3711 1.864 36.1471 1.48C35.9231 1.08 35.4751 0.879999 34.8031 0.879999H34.5631V0.159999H41.0911C44.3231 0.159999 46.7791 0.848 48.4591 2.224C50.1551 3.584 51.0031 5.504 51.0031 7.984C51.0031 9.568 50.6431 10.968 49.9231 12.184C49.2191 13.384 48.1631 14.32 46.7551 14.992C45.3631 15.664 43.6831 16 41.7151 16H36.4831V3.28ZM41.6431 15.04C42.7631 15.04 43.7551 14.76 44.6191 14.2C45.4991 13.64 46.1791 12.832 46.6591 11.776C47.1551 10.72 47.4031 9.488 47.4031 8.08C47.4031 6.688 47.1551 5.472 46.6591 4.432C46.1791 3.376 45.4991 2.56 44.6191 1.984C43.7391 1.408 42.7311 1.12 41.5951 1.12H41.4031C40.8751 1.12 40.4511 1.152 40.1311 1.216L39.6031 1.288V14.872L40.1311 14.968C40.4671 15.016 40.8911 15.04 41.4031 15.04H41.6431ZM54.0144 3.28C54.0144 2.464 53.9024 1.864 53.6784 1.48C53.4544 1.08 53.0064 0.879999 52.3344 0.879999H52.0944V0.159999H62.6784C64.0384 0.159999 64.7184 0.799999 64.7184 2.08V4.12H63.9984C63.9984 3.128 63.7424 2.4 63.2304 1.936C62.7344 1.472 61.9904 1.24 60.9984 1.24H57.1344V7.24H63.3744V8.32H57.1344V14.92H61.2384C62.1504 14.92 62.9104 14.72 63.5184 14.32C64.1264 13.904 64.6304 13.192 65.0304 12.184L65.6784 12.424L64.9824 14.32C64.7744 14.896 64.5264 15.32 64.2384 15.592C63.9504 15.864 63.5024 16 62.8944 16H54.0144V3.28ZM81.197 16.096C80.189 16.096 79.277 15.888 78.461 15.472C77.645 15.04 76.981 14.208 76.469 12.976L75.917 11.632H69.533L67.565 16H66.317L73.397 0.159999H74.477L79.853 12.976C80.461 14.464 81.293 15.264 82.349 15.376V15.976C82.061 16.056 81.677 16.096 81.197 16.096ZM70.037 10.552H75.461L72.821 4.288L70.037 10.552Z" fill="white"/>
</svg>
